<svg width="20" height="20" viewBox="0 0 20 20" fill="none" xmlns="http://www.w3.org/2000/svg">
<path d="M7.96306 15.9339C3.56228 15.9339 0 12.3645 0 7.96695C0 3.56936 3.56762 0 7.96306 0C12.3585 0 15.9261 3.56936 15.9261 7.96695C15.9261 12.3645 12.3638 15.9285 7.96306 15.9339ZM7.96306 1.6885C4.50225 1.6885 1.69302 4.49911 1.69302 7.9616C1.69302 11.4241 4.50225 14.2347 7.96306 14.2347C11.4239 14.2347 14.2331 11.4241 14.2331 7.9616C14.2331 4.49911 11.4239 1.69384 7.96306 1.6885Z" fill="#717171"/>
<path d="M19.1521 20C18.9278 20 18.7088 19.9091 18.554 19.7542L12.4014 13.5986C12.0703 13.2674 12.0703 12.7277 12.4014 12.3964C12.7325 12.0651 13.272 12.0651 13.6031 12.3964L19.7556 18.5519C20.0814 18.8832 20.0814 19.4176 19.7556 19.7542C19.5901 19.9145 19.3765 20 19.1521 20Z" fill="#717171"/>
</svg>
